<?xml version="1.0" standalone="no"?>
<!DOCTYPE svg PUBLIC "-//W3C//DTD SVG 20010904//EN"
 "http://www.w3.org/TR/2001/REC-SVG-20010904/DTD/svg10.dtd">
<svg version="1.0" xmlns="http://www.w3.org/2000/svg"
 width="250.000000pt" height="84.000000pt" viewBox="0 0 250.000000 84.000000"
 preserveAspectRatio="xMidYMid meet">

<g transform="translate(0.000000,84.000000) scale(0.100000,-0.100000)"
fill="#1976D2" stroke="none">
<path d="M365 670 c-111 -44 -176 -136 -179 -253 -2 -117 77 -236 183 -272 60
-20 166 -19 213 3 55 25 117 88 144 146 60 129 -1 302 -130 368 -59 31 -166
34 -231 8z m77 -117 c16 -14 18 -33 18 -155 0 -125 -2 -140 -20 -158 -24 -24
-38 -25 -68 -4 -21 14 -22 22 -22 152 0 108 3 142 16 160 18 26 50 28 76 5z
m146 1 c44 -31 19 -114 -35 -114 -54 0 -86 47 -63 91 20 36 64 47 98 23z"/>
<path d="M1530 437 c0 -121 4 -177 12 -185 18 -18 68 -15 68 3 0 8 -6 15 -14
15 -21 0 -26 33 -26 193 0 140 -1 147 -20 147 -19 0 -20 -7 -20 -173z"/>
<path d="M1640 442 c0 -182 3 -191 58 -205 17 -4 22 -1 22 14 0 11 -6 22 -14
25 -11 4 -16 43 -21 170 -7 151 -9 164 -26 164 -18 0 -19 -10 -19 -168z"/>
<path d="M2217 553 c-4 -3 -7 -67 -7 -140 0 -130 1 -135 25 -159 21 -21 33
-25 73 -22 39 3 47 6 47 23 0 16 -8 21 -43 23 -24 2 -45 9 -47 15 -2 7 -6 45
-10 85 l-6 72 50 0 c44 0 51 3 51 20 0 17 -7 20 -50 20 l-50 0 0 35 c0 33 -16
46 -33 28z"/>
<path d="M854 481 c-37 -22 -54 -65 -54 -132 0 -65 36 -108 97 -116 58 -8 93
3 93 27 0 18 -7 20 -54 20 -47 0 -57 4 -75 26 -12 15 -21 31 -21 35 0 5 38 9
85 9 l85 0 0 41 c0 51 -13 75 -50 94 -39 20 -69 19 -106 -4z m94 -37 c12 -8
22 -26 22 -40 0 -23 -3 -24 -60 -24 -57 0 -60 1 -60 24 0 26 33 56 60 56 9 0
26 -7 38 -16z"/>
<path d="M1110 493 c-31 -11 -60 -47 -60 -73 0 -31 18 -49 78 -79 34 -17 43
-27 40 -44 -3 -20 -9 -22 -60 -22 -49 0 -58 -2 -58 -17 0 -22 38 -32 93 -25
51 7 79 37 75 81 -3 27 -11 35 -63 62 -42 21 -60 36 -60 50 0 16 8 19 53 22
43 2 52 6 52 21 0 23 -53 37 -90 24z"/>
<path d="M1312 483 c-42 -20 -62 -59 -62 -120 0 -97 73 -153 157 -122 97 37
98 195 3 244 -37 19 -57 19 -98 -2z m82 -34 c54 -25 60 -124 11 -166 -34 -30
-51 -29 -86 6 -56 56 -30 158 43 170 4 0 18 -4 32 -10z"/>
<path d="M1803 484 c-37 -18 -63 -74 -63 -134 0 -56 48 -109 107 -117 58 -8
93 3 93 27 0 18 -7 20 -59 20 -60 0 -73 7 -85 48 -7 22 -6 22 78 22 l86 0 0
30 c0 61 -51 120 -102 120 -13 0 -37 -8 -55 -16z m94 -46 c13 -12 23 -30 23
-40 0 -16 -9 -18 -65 -18 -57 0 -65 2 -65 18 0 26 39 58 74 61 6 1 20 -9 33
-21z"/>
<path d="M2075 490 c-107 -44 -102 -232 7 -255 47 -11 98 2 98 25 0 17 -7 20
-54 20 -35 0 -58 5 -66 15 -21 25 -24 89 -6 123 15 29 21 32 66 32 42 0 50 3
50 19 0 29 -49 40 -95 21z"/>
</g>
</svg>
